<mxfile host="app.diagrams.net" modified="2023-10-12T09:01:59.492Z" agent="Mozilla/5.0 (Windows NT 10.0; Win64; x64) AppleWebKit/537.36 (KHTML, like Gecko) Chrome/118.0.0.0 Safari/537.36" version="22.0.4" etag="LOxZ7jNaKjMsR4wc9jEV" type="github">
  <diagram name="第 1 页" id="84-5xBz90SOwPihEPYWc">
    <mxGraphModel>
      <root>
        <mxCell id="0" />
        <mxCell id="1" parent="0" />
      </root>
    </mxGraphModel>
  </diagram>
</mxfile>
